<?xml version="1.0" standalone="no"?>
<!DOCTYPE svg PUBLIC "-//W3C//DTD SVG 20010904//EN"
 "http://www.w3.org/TR/2001/REC-SVG-20010904/DTD/svg10.dtd">
<svg version="1.0" xmlns="http://www.w3.org/2000/svg"
 width="900.000000pt" height="900.000000pt" viewBox="0 0 900.000000 900.000000"
 preserveAspectRatio="xMidYMid meet">

<g transform="translate(0.000000,900.000000) scale(0.100000,-0.100000)"
fill="#000000" stroke="none">
<path d="M0 8644 l0 -355 22 3 c22 3 23 8 28 128 l5 125 60 5 60 5 5 60 5 60
60 5 60 5 5 60 5 60 125 5 125 5 5 60 5 60 63 3 c61 3 62 3 62 32 l0 30 -350
0 -350 0 0 -356z"/>
<path d="M1100 8970 c0 -29 1 -29 63 -32 l62 -3 5 -65 5 -65 190 0 190 0 3
-62 3 -62 62 -3 62 -3 5 -60 5 -60 60 0 60 0 3 58 3 57 109 2 c61 0 116 1 123
2 8 1 13 -19 15 -59 4 -67 13 -78 60 -70 61 11 72 1 72 -66 0 -56 1 -59 25
-60 14 -1 30 -3 35 -4 6 -1 24 -3 40 -4 l31 -1 -3 -57 -3 -58 -124 -5 -125 -5
3 -60 c1 -33 5 -62 7 -64 3 -3 71 -4 152 -3 81 1 164 0 184 -4 l37 -6 3 -61 3
-62 62 -3 62 -3 3 -57 3 -57 63 -3 62 -3 0 -194 0 -195 -61 0 c-52 0 -62 -3
-66 -20 -5 -18 -14 -20 -74 -20 -52 0 -69 3 -69 14 0 11 -25 14 -121 15 -106
2 -121 0 -116 -14 5 -11 -1 -15 -26 -16 -37 -1 -926 -9 -944 -9 -8 0 -13 -14
-13 -35 l0 -35 381 -2 380 -3 -1 -337 0 -338 380 0 381 0 -3 170 -3 170 1629
0 c895 0 1633 3 1638 6 6 4 7 0 1 -12 -4 -11 -7 -90 -5 -176 l3 -158 375 0
c349 0 374 1 374 18 1 9 0 157 0 328 0 171 2 317 5 325 4 12 62 13 385 9 l380
-5 2 -340 3 -340 -383 -3 -382 -2 0 -805 0 -805 254 0 253 0 6 -67 c4 -38 7
-211 7 -385 l0 -317 123 -3 122 -3 3 -383 c2 -332 0 -383 -13 -388 -11 -5 -12
-11 -4 -25 8 -15 6 -19 -8 -19 -12 0 -14 -3 -6 -8 8 -5 12 -72 15 -224 2 -119
6 -219 10 -223 3 -3 59 -3 124 2 l118 8 -3 116 c-3 139 4 153 78 147 l46 -3 5
60 5 60 185 3 c101 1 188 6 193 11 5 5 10 62 10 127 l2 119 62 3 62 3 3 62 3
62 60 5 60 5 5 60 5 60 125 5 125 5 5 60 5 60 63 3 62 3 0 2454 0 2455 -3950
0 -3950 0 0 -30z m3820 -360 c0 -27 -3 -30 -30 -30 -27 0 -30 3 -30 30 0 27 3
30 30 30 27 0 30 -3 30 -30z m-2405 -125 l0 -60 -57 -3 -56 -3 -4 56 c-1 31 1
60 5 64 4 4 31 7 60 7 l52 -1 0 -60z m535 -155 c0 -27 -3 -30 -30 -30 -27 0
-30 3 -30 30 0 27 3 30 30 30 27 0 30 -3 30 -30z m2245 -35 c0 -25 -4 -30 -25
-30 -16 0 -26 6 -28 18 -6 30 6 49 30 45 18 -2 23 -9 23 -33z m3035 -86 c0
-27 -3 -30 -27 -27 -22 2 -29 9 -31 31 -3 24 0 27 27 27 28 0 31 -3 31 -31z
m630 -264 c0 -20 -5 -25 -25 -25 -20 0 -25 5 -25 25 0 20 5 25 25 25 20 0 25
-5 25 -25z m-5010 -165 c0 -27 -3 -30 -30 -30 -27 0 -30 3 -30 30 0 27 3 30
30 30 27 0 30 -3 30 -30z m2245 -20 c0 -18 -6 -26 -23 -28 -24 -4 -38 18 -28
44 3 9 15 14 28 12 17 -2 23 -10 23 -28z m2235 -106 c32 -13 39 -20 35 -35 -4
-11 -3 -19 2 -19 4 0 8 -20 9 -45 0 -25 -3 -45 -8 -45 -5 0 -6 -4 -3 -10 6 -9
-8 -14 -27 -11 -5 0 -8 -6 -8 -15 0 -12 -6 -15 -22 -10 -13 3 -36 6 -53 6 -42
1 -81 50 -63 79 10 16 10 23 1 32 -10 10 -7 17 12 35 13 12 21 25 18 28 -4 3
14 6 38 6 32 0 40 3 29 10 -23 15 -5 12 40 -6z m-6760 -204 c-20 -13 -40 -13
-40 0 0 6 12 10 28 10 21 0 24 -2 12 -10z m5207 -37 c-3 -10 -5 -2 -5 17 0 19
2 27 5 18 2 -10 2 -26 0 -35z m683 22 c0 -8 -4 -15 -8 -15 -5 0 -9 7 -9 15 0
8 4 15 9 15 4 0 8 -7 8 -15z m-5977 -2 c-13 -2 -33 -2 -45 0 -13 2 -3 4 22 4
25 0 35 -2 23 -4z m5277 -3 c0 -5 -2 -10 -4 -10 -3 0 -8 5 -11 10 -3 6 -1 10
4 10 6 0 11 -4 11 -10z m303 -7 c-24 -2 -62 -2 -85 0 -24 2 -5 4 42 4 47 0 66
-2 43 -4z m360 0 c-7 -2 -19 -2 -25 0 -7 3 -2 5 12 5 14 0 19 -2 13 -5z
m-5858 -13 c-27 -12 -35 -12 -35 0 0 6 12 10 28 9 24 0 25 -1 7 -9z m-162 -7
c-13 -2 -33 -2 -45 0 -13 2 -3 4 22 4 25 0 35 -2 23 -4z m315 0 c-15 -2 -42
-2 -60 0 -18 2 -6 4 27 4 33 0 48 -2 33 -4z m5695 -2339 c7 -39 -3 -64 -28
-70 -40 -10 -65 12 -65 56 l0 40 44 0 c39 0 44 -3 49 -26z m715 -72 c3 -31 2
-33 -25 -30 -17 2 -29 10 -31 21 -6 30 6 49 30 45 18 -2 24 -11 26 -36z m300
-499 c-2 -22 -8 -28 -28 -28 -20 0 -26 6 -28 28 -3 24 0 27 28 27 28 0 31 -3
28 -27z m-647 -83 c16 0 29 -4 29 -10 0 -5 5 -9 12 -7 24 5 50 -78 31 -97 -5
-4 -8 -11 -8 -15 0 -19 -37 -41 -67 -41 -56 0 -80 11 -75 31 3 12 0 19 -9 19
-23 0 -18 82 6 103 19 16 20 16 21 -1 0 -10 5 -4 11 13 6 17 13 24 16 18 2 -7
17 -13 33 -13z"/>
<path d="M0 7327 l0 -43 48 -1 c26 0 61 -1 77 -3 30 -2 30 -2 5 -9 -14 -5 -49
-6 -77 -3 l-53 5 0 -1157 c0 -1149 0 -1156 20 -1156 11 0 20 5 20 10 0 6 -8
10 -17 10 -11 0 -14 3 -7 10 11 11 56 1 48 -11 -3 -5 3 -9 12 -9 10 0 29 -10
42 -22 14 -13 22 -17 17 -9 -5 9 -3 12 6 9 17 -5 25 -48 10 -48 -6 0 -3 -8 7
-18 9 -11 20 -17 24 -15 4 2 5 -14 3 -34 -4 -31 -3 -34 4 -13 8 21 9 18 10
-22 1 -38 -2 -46 -13 -42 -9 3 -17 23 -19 47 -2 24 -4 13 -4 -28 0 -38 1 -62
4 -52 7 28 23 19 23 -13 0 -16 -4 -30 -10 -30 -5 0 -10 5 -10 10 0 6 -10 10
-22 10 -21 -1 -21 -2 -6 -11 10 -5 18 -17 18 -25 0 -14 -61 -77 -78 -80 -25
-5 -52 -18 -52 -25 0 -5 -5 -9 -12 -9 -9 0 -9 3 0 12 16 16 15 28 -3 28 -13 0
-15 -268 -15 -2295 l0 -2295 4500 0 4500 0 0 1195 0 1195 -183 0 c-133 0 -186
3 -196 12 -6 7 -31 13 -54 14 -23 0 -89 1 -146 2 -152 3 -115 15 46 16 l138 1
3 43 3 42 -145 0 c-123 0 -146 -2 -146 -15 0 -8 -4 -15 -10 -15 -5 0 -10 7
-10 15 0 12 -18 15 -99 15 -67 0 -102 4 -107 12 -4 7 -8 35 -8 63 l-1 50 -115
2 c-63 2 -146 6 -185 10 l-70 8 -3 63 -3 62 -54 0 c-29 0 -59 2 -67 3 -7 2
-10 2 -5 0 4 -3 7 -198 7 -434 l0 -429 -193 0 c-175 0 -196 -2 -210 -18 -15
-16 -17 -46 -17 -215 l0 -197 -170 0 -169 0 -3 -157 c-2 -87 -6 -157 -10 -155
-5 1 -177 2 -383 2 l-375 0 0 160 0 160 -504 0 c-494 0 -504 0 -499 -19 4 -17
-1 -20 -38 -23 l-44 -3 -5 -45 c-5 -41 -7 -45 -35 -48 -46 -4 -55 8 -56 76
l-2 62 -278 0 -279 0 0 -25 c0 -23 -4 -25 -45 -25 -42 0 -45 -2 -46 -27 -1
-16 -1 -32 0 -37 1 -4 -4 -14 -10 -22 -9 -11 -50 -14 -195 -14 l-184 0 0 51 0
52 -40 -7 c-39 -6 -41 -5 -46 24 -6 29 -9 30 -58 30 -28 0 -46 -4 -40 -8 7 -4
8 -15 4 -28 -8 -20 -13 -21 -137 -17 -150 5 -157 7 -150 33 5 19 0 20 -96 20
-56 0 -97 -4 -92 -8 6 -4 11 -15 13 -24 3 -19 8 -18 -128 -21 l-65 -2 0 -40 0
-40 -47 -3 -48 -3 0 40 c0 46 -19 62 -60 51 -25 -6 -25 -7 -28 -130 -1 -69 -4
-129 -6 -135 -2 -6 -137 -9 -385 -7 l-381 2 0 150 0 150 -217 0 c-134 0 -213
4 -207 9 5 5 24 11 43 13 l33 3 -1 194 c0 124 -4 198 -11 205 -7 7 -88 13
-208 16 l-197 5 -1 1193 -1 1192 124 0 123 0 0 385 0 385 255 0 255 0 2 373
c2 204 2 567 0 805 l-2 432 -376 0 c-207 -1 -378 1 -380 3 -2 2 -4 123 -4 270
l-1 267 -137 1 c-75 1 -141 1 -145 0 -4 -1 -22 6 -39 15 -21 11 -27 18 -19 24
7 4 15 26 18 49 l6 41 -57 0 -57 0 2 -51 c4 -80 6 -80 -276 -79 -186 1 -244 4
-259 15 -13 10 -37 12 -87 8 -47 -3 -69 -1 -69 6 0 6 19 11 43 12 108 3 101 0
102 46 l1 42 -153 0 -153 1 0 -43z m900 -51 c0 -3 -4 -8 -10 -11 -5 -3 -10 -1
-10 4 0 6 5 11 10 11 6 0 10 -2 10 -4z m-520 -120 c0 -11 -19 -15 -25 -6 -3 5
1 10 9 10 9 0 16 -2 16 -4z m630 -6 c0 -5 -7 -10 -15 -10 -8 0 -15 5 -15 10 0
6 7 10 15 10 8 0 15 -4 15 -10z m247 -12 c-3 -8 -6 -5 -6 6 -1 11 2 17 5 13 3
-3 4 -12 1 -19z m-50 6 c-3 -3 -12 -4 -19 -1 -8 3 -5 6 6 6 11 1 17 -2 13 -5z
m83 -514 c0 -16 -4 -30 -10 -30 -11 0 -14 43 -3 53 11 12 13 8 13 -23z m160
-1575 c0 -19 1 -38 3 -42 1 -4 -11 -10 -27 -14 -42 -12 -66 5 -66 45 0 42 5
46 52 46 37 0 38 -1 38 -35z m-1233 -327 c-3 -7 -5 -2 -5 12 0 14 2 19 5 13 2
-7 2 -19 0 -25z m-145 -170 c-7 -7 -12 -8 -12 -2 0 14 12 26 19 19 2 -3 -1
-11 -7 -17z m7844 -1967 c-3 -5 -17 -8 -31 -8 -14 0 -28 3 -31 8 -3 5 11 9 31
9 20 0 34 -4 31 -9z m-41 -31 c3 -5 1 -10 -4 -10 -6 0 -11 5 -11 10 0 6 2 10
4 10 3 0 8 -4 11 -10z m78 -7 c-7 -2 -19 -2 -25 0 -7 3 -2 5 12 5 14 0 19 -2
13 -5z m97 3 c0 -11 -19 -15 -25 -6 -3 5 1 10 9 10 9 0 16 -2 16 -4z m630
-252 c0 -2 -9 -4 -20 -4 -11 0 -20 4 -20 9 0 5 9 7 20 4 11 -3 20 -7 20 -9z
m-3270 -1424 c-7 -5 -3 -10 12 -14 22 -7 22 -7 3 -16 -18 -8 -18 -9 6 -9 47
-2 109 -79 109 -136 0 -13 4 -25 9 -27 13 -4 -14 -114 -27 -111 -5 1 -9 -5 -8
-15 4 -24 -68 -90 -96 -88 -16 1 -23 -4 -22 -16 1 -10 -2 -15 -7 -12 -5 3 -9
12 -9 20 0 11 -15 14 -65 14 -58 0 -65 2 -65 20 0 11 -5 20 -11 20 -7 0 -8
-11 -4 -30 4 -19 3 -30 -4 -30 -6 0 -11 7 -11 16 0 8 -5 12 -10 9 -6 -4 -7
-12 -4 -18 4 -7 -9 5 -28 26 -19 20 -40 37 -46 37 -7 0 -12 6 -12 14 0 7 -7
27 -15 42 -19 37 -19 95 0 141 8 19 15 44 15 55 0 19 41 68 58 68 4 0 14 6 20
12 22 22 84 36 155 35 38 0 63 -3 57 -7z m-83 -440 c-38 -19 -39 -19 -60 0
l-21 20 60 0 59 -1 -38 -19z"/>
<path d="M5260 858 c0 -4 30 -8 68 -7 77 1 73 6 -10 12 -32 2 -58 0 -58 -5z"/>
<path d="M5206 841 c-4 -5 -2 -12 4 -16 5 -3 10 -1 10 4 0 6 4 11 10 11 5 0 7
-6 4 -14 -3 -8 0 -17 6 -21 8 -5 11 1 8 16 -3 24 -31 38 -42 20z"/>
<path d="M5393 805 c0 -22 2 -30 4 -17 2 12 2 30 0 40 -3 9 -5 -1 -4 -23z"/>
<path d="M5140 745 c0 -10 9 -15 28 -14 16 1 20 3 10 6 -10 2 -18 9 -18 14 0
5 -4 9 -10 9 -5 0 -10 -7 -10 -15z"/>
<path d="M5236 745 c-3 -8 -1 -15 4 -15 6 0 10 7 10 15 0 8 -2 15 -4 15 -2 0
-6 -7 -10 -15z"/>
<path d="M5391 744 c0 -11 3 -14 6 -6 3 7 2 16 -1 19 -3 4 -6 -2 -5 -13z"/>
<path d="M5484 746 c-17 -13 -17 -14 9 -13 27 2 35 11 18 21 -4 3 -17 -1 -27
-8z"/>
<path d="M5123 660 c0 -41 2 -58 4 -37 2 20 2 54 0 75 -2 20 -4 3 -4 -38z"/>
<path d="M5508 672 c-2 -15 -1 -38 3 -52 5 -18 7 -10 8 28 1 56 -4 69 -11 24z"/>
<path d="M5148 583 c6 -2 18 -2 25 0 6 3 1 5 -13 5 -14 0 -19 -2 -12 -5z"/>
<path d="M5390 579 c0 -5 5 -7 10 -4 6 3 10 8 10 11 0 2 -4 4 -10 4 -5 0 -10
-5 -10 -11z"/>
<path d="M5463 583 c9 -2 23 -2 30 0 6 3 -1 5 -18 5 -16 0 -22 -2 -12 -5z"/>
<path d="M5392 520 c0 -19 2 -27 5 -17 2 9 2 25 0 35 -3 9 -5 1 -5 -18z"/>
<path d="M2822 5897 l3 -802 378 -3 377 -2 0 805 0 805 -380 0 -380 -1 2 -802z"/>
<path d="M5300 5895 l0 -805 373 0 374 0 7 378 c4 207 5 568 4 802 l-4 425
-377 3 -377 2 0 -805z"/>
<path d="M40 4935 c0 -8 2 -15 4 -15 2 0 6 7 10 15 3 8 1 15 -4 15 -6 0 -10
-7 -10 -15z"/>
<path d="M93 4853 c15 -2 37 -2 50 0 12 2 0 4 -28 4 -27 0 -38 -2 -22 -4z"/>
<path d="M40 4612 c0 -15 4 -20 16 -15 9 3 12 9 7 12 -4 3 -11 10 -15 15 -5 5
-8 0 -8 -12z"/>
<path d="M2831 3630 c-4 -3 -12 -21 -17 -40 l-10 -35 -266 -5 c-147 -3 -270
-8 -274 -12 -4 -5 2 -8 14 -8 l22 0 -2 -327 c-3 -268 -5 -327 -17 -331 -9 -3
-11 0 -6 9 6 11 5 12 -6 2 -8 -9 -45 -13 -105 -13 -65 0 -94 4 -97 13 -2 6 -9
-6 -16 -28 -7 -26 -11 -150 -11 -352 l0 -313 130 0 130 0 0 340 0 340 345 0
345 0 0 -335 0 -335 378 0 377 0 4 675 3 675 -76 0 c-82 0 -88 4 -90 59 l-1
26 -373 0 c-206 0 -377 -2 -381 -5z m347 -777 c-10 -2 -28 -2 -40 0 -13 2 -5
4 17 4 22 1 32 -1 23 -4z"/>
<path d="M5297 3634 c-4 -4 -7 -17 -7 -30 0 -50 -7 -54 -91 -54 l-79 0 0 -168
c0 -93 3 -398 7 -678 l6 -509 374 0 373 0 0 338 0 337 345 0 345 0 0 -340 0
-340 130 0 130 0 0 340 0 340 -125 0 -124 0 -3 313 c-2 171 1 318 6 325 5 7 4
12 -3 12 -6 0 -10 6 -8 13 1 9 -53 13 -242 15 -153 1 -249 6 -257 13 -7 6 -14
24 -16 40 l-3 29 -375 6 c-207 3 -379 2 -383 -2z m-54 -781 c-13 -2 -35 -2
-50 0 -16 2 -5 4 22 4 28 0 40 -2 28 -4z m560 0 c-23 -2 -64 -2 -90 0 -26 2
-7 3 42 3 50 0 71 -1 48 -3z"/>
<path d="M1331 3524 c0 -11 3 -14 6 -6 3 7 2 16 -1 19 -3 4 -6 -2 -5 -13z"/>
<path d="M2068 3533 c12 -2 30 -2 40 0 9 3 -1 5 -23 4 -22 0 -30 -2 -17 -4z"/>
<path d="M6653 3533 c15 -2 37 -2 50 0 12 2 0 4 -28 4 -27 0 -38 -2 -22 -4z"/>
<path d="M6778 3533 c12 -2 30 -2 40 0 9 3 -1 5 -23 4 -22 0 -30 -2 -17 -4z"/>
<path d="M6600 3511 c0 -5 9 -7 20 -4 11 3 20 7 20 9 0 2 -9 4 -20 4 -11 0
-20 -4 -20 -9z"/>
<path d="M1336 3494 c6 -3 9 -17 6 -32 -6 -34 3 -26 12 11 5 22 3 27 -11 26
-10 0 -13 -3 -7 -5z"/>
<path d="M7542 3475 c0 -16 2 -22 5 -12 2 9 2 23 0 30 -3 6 -5 -1 -5 -18z"/>
<path d="M6618 3483 c7 -3 16 -2 19 1 4 3 -2 6 -13 5 -11 0 -14 -3 -6 -6z"/>
<path d="M7541 3414 c0 -11 3 -14 6 -6 3 7 2 16 -1 19 -3 4 -6 -2 -5 -13z"/>
<path d="M1344 3205 c0 -115 2 -161 3 -102 2 59 2 154 0 210 -1 56 -3 8 -3
-108z"/>
<path d="M7533 3315 c0 -44 2 -61 4 -37 2 23 2 59 0 80 -2 20 -4 1 -4 -43z"/>
<path d="M2263 3120 c0 -25 2 -35 4 -22 2 12 2 32 0 45 -2 12 -4 2 -4 -23z"/>
<path d="M7541 3064 c0 -11 3 -14 6 -6 3 7 2 16 -1 19 -3 4 -6 -2 -5 -13z"/>
<path d="M7561 3054 c0 -11 3 -14 6 -6 3 7 2 16 -1 19 -3 4 -6 -2 -5 -13z"/>
<path d="M7546 3005 c-3 -9 -5 -33 -5 -53 2 -33 2 -32 9 13 8 53 6 66 -4 40z"/>
<path d="M2265 2910 c-3 -5 -1 -10 4 -10 6 0 11 5 11 10 0 6 -2 10 -4 10 -3 0
-8 -4 -11 -10z"/>
<path d="M6830 2903 c0 -11 3 -14 8 -7 4 6 14 14 22 17 10 4 8 6 -7 6 -16 1
-23 -5 -23 -16z"/>
<path d="M2015 2890 c-3 -5 -1 -10 4 -10 6 0 11 5 11 10 0 6 -2 10 -4 10 -3 0
-8 -4 -11 -10z"/>
<path d="M2240 2890 c0 -5 5 -10 11 -10 5 0 7 5 4 10 -3 6 -8 10 -11 10 -2 0
-4 -4 -4 -10z"/>
<path d="M6850 2852 c0 -12 19 -26 26 -19 2 2 -2 10 -11 17 -9 8 -15 8 -15 2z"/>
</g>
</svg>
